C:\Users\lingh\OneDrive - KTH\ExMaterials\7-Doctor\Research\2-simulation\PredSimResults\Falisse_et_al_20220.2weak\Falisse_et_al_2022_v1.mot
version=1
nRows=4
nColumns=124
inDegrees=yes
endheader
                time	         pelvis_tilt	         pelvis_list	     pelvis_rotation	           pelvis_tx	           pelvis_ty	           pelvis_tz	       hip_flexion_r	     hip_adduction_r	      hip_rotation_r	        knee_angle_r	       ankle_angle_r	    subtalar_angle_r	         mtp_angle_r	       hip_flexion_l	     hip_adduction_l	      hip_rotation_l	        knee_angle_l	       ankle_angle_l	    subtalar_angle_l	         mtp_angle_l	    lumbar_extension	      lumbar_bending	     lumbar_rotation	          arm_flex_r	           arm_add_r	           arm_rot_r	        elbow_flex_r	          arm_flex_l	           arm_add_l	           arm_rot_l	        elbow_flex_l	glut_med1_r/activation	glut_med2_r/activation	glut_med3_r/activation	glut_min1_r/activation	glut_min2_r/activation	glut_min3_r/activation	semimem_r/activation	semiten_r/activation	bifemlh_r/activation	bifemsh_r/activation	    sar_r/activation	add_long_r/activation	add_brev_r/activation	add_mag1_r/activation	add_mag2_r/activation	add_mag3_r/activation	    tfl_r/activation	   pect_r/activation	   grac_r/activation	glut_max1_r/activation	glut_max2_r/activation	glut_max3_r/activation	iliacus_r/activation	  psoas_r/activation	quad_fem_r/activation	    gem_r/activation	   peri_r/activation	rect_fem_r/activation	vas_med_r/activation	vas_int_r/activation	vas_lat_r/activation	med_gas_r/activation	lat_gas_r/activation	 soleus_r/activation	tib_post_r/activation	flex_dig_r/activation	flex_hal_r/activation	tib_ant_r/activation	per_brev_r/activation	per_long_r/activation	per_tert_r/activation	ext_dig_r/activation	ext_hal_r/activation	glut_med1_l/activation	glut_med2_l/activation	glut_med3_l/activation	glut_min1_l/activation	glut_min2_l/activation	glut_min3_l/activation	semimem_l/activation	semiten_l/activation	bifemlh_l/activation	bifemsh_l/activation	    sar_l/activation	add_long_l/activation	add_brev_l/activation	add_mag1_l/activation	add_mag2_l/activation	add_mag3_l/activation	    tfl_l/activation	   pect_l/activation	   grac_l/activation	glut_max1_l/activation	glut_max2_l/activation	glut_max3_l/activation	iliacus_l/activation	  psoas_l/activation	quad_fem_l/activation	    gem_l/activation	   peri_l/activation	rect_fem_l/activation	vas_med_l/activation	vas_int_l/activation	vas_lat_l/activation	med_gas_l/activation	lat_gas_l/activation	 soleus_l/activation	tib_post_l/activation	flex_dig_l/activation	flex_hal_l/activation	tib_ant_l/activation	per_brev_l/activation	per_long_l/activation	per_tert_l/activation	ext_dig_l/activation	ext_hal_l/activation	 ercspn_r/activation	 ercspn_l/activation	 intobl_r/activation	 intobl_l/activation	 extobl_r/activation	 extobl_l/activation	
          0.00000000	         -6.54530370	         -6.99562299	          7.63445464	          0.00000000	          0.90212673	         -0.00577074	         31.41946570	          7.15730153	          0.11052084	         -8.76354715	         11.00194949	         -7.04667457	          0.30103977	        -15.48541943	         -6.15659921	          1.22021261	         -5.08074428	          1.32744508	          0.25495020	         35.25997061	          2.46680988	          3.47849163	         -0.86376685	        -11.08912337	        -13.48914701	         17.43425856	          0.29934906	          1.64138217	        -13.45085982	         18.82667169	         80.32795274	          0.18762389	          0.05000016	          0.05000003	          0.11318265	          0.05898331	          0.05000053	          0.24032391	          0.05898229	          0.05898228	          0.05898202	          0.05000042	          0.09682270	          0.13473478	          0.13473578	          0.20744666	          0.34451676	          0.05073786	          0.08207976	          0.09686033	          0.05000004	          0.05000000	          0.18671877	          0.06708657	          0.06428301	          0.05000000	          0.05000006	          0.05000011	          0.05409760	          0.18595163	          0.19792754	          0.16201399	          0.05032201	          0.05000012	          0.05447711	          0.05000000	          0.05000001	          0.05000001	          0.64531144	          0.37861444	          0.21712639	          0.49463579	          0.65245576	          0.34524158	          0.05000009	          0.09678828	          0.10403635	          0.05000014	          0.05098374	          0.08206984	          0.05000007	          0.05000003	          0.05000001	          0.06959166	          0.05001292	          0.09143291	          0.07841389	          0.05510843	          0.05000165	          0.05000005	          0.05898617	          0.06052129	          0.06953896	          0.05001077	          0.05898557	          0.06957876	          0.24623244	          0.60594152	          0.12388990	          0.11421613	          0.09682246	          0.08207765	          0.05000024	          0.05000017	          0.05000013	          0.29960655	          0.46437621	          0.32875920	          0.50875799	          0.56350846	          0.56117832	          0.05000000	          0.05000012	          0.05453745	          0.05000002	          0.05000000	          0.05000002	          0.14720206	          0.05000001	          0.13034031	          0.05000000	          0.08927616	          0.05000000	
          0.01077875	         -6.52390128	         -6.89782345	          7.79845703	          0.01698435	          0.90023959	         -0.00586403	         31.07045073	          7.23960915	          0.23664536	         -9.42398405	         10.26172058	         -7.41161461	          0.34224453	        -15.32408482	         -6.23051054	          0.89269545	         -7.33930439	          0.79396190	          0.73137992	         36.73981176	          2.62653098	          3.62305895	         -0.90173444	        -12.16897873	        -13.50050185	         17.16415597	          0.12345868	          1.41392791	        -13.45524659	         19.01478413	         82.60264331	          0.15905107	          0.05000014	          0.05000141	          0.09594634	          0.05000094	          0.05000020	          0.20393705	          0.05000001	          0.05000000	          0.05000000	          0.05000021	          0.08207778	          0.11421631	          0.11421717	          0.19597160	          0.35710291	          0.05000026	          0.06958008	          0.08210969	          0.05000651	          0.10672595	          0.15964523	          0.06957815	          0.06957817	          0.07228352	          0.05000007	          0.05000021	          0.06957821	          0.25569066	          0.27104690	          0.22333582	          0.05000000	          0.05000000	          0.05000000	          0.06957820	          0.05898296	          0.06300303	          0.54703831	          0.41838699	          0.24578237	          0.41930878	          0.55309466	          0.29266547	          0.05252507	          0.08204861	          0.08819287	          0.05901196	          0.05000197	          0.06957166	          0.05000044	          0.05000009	          0.05000739	          0.05899370	          0.05000244	          0.11153169	          0.11899536	          0.05846023	          0.07254744	          0.17214169	          0.05000355	          0.05439052	          0.05894911	          0.05000101	          0.05000287	          0.05898280	          0.20873422	          0.51366397	          0.10502297	          0.09682240	          0.08207759	          0.06957822	          0.05898294	          0.07100620	          0.09517763	          0.25398009	          0.39365735	          0.30984092	          0.50627888	          0.57726879	          0.56545936	          0.05000000	          0.05000001	          0.05000000	          0.05000003	          0.05000000	          0.05000005	          0.12528341	          0.05556005	          0.11049106	          0.05000000	          0.07568048	          0.05000000	
          0.02155749	         -6.49840595	         -6.76088412	          7.92779210	          0.03420783	          0.89840251	         -0.00594355	         30.59431719	          7.31180204	          0.36105134	        -10.48094154	          9.65072708	         -7.78027206	          0.27782249	        -15.05632838	         -6.27464317	          0.55376780	         -9.81675737	          0.17658759	          1.21771739	         37.93995157	          2.80503236	          3.74664552	         -0.93276237	        -13.23917853	        -13.51055225	         16.90471435	          0.03194801	          1.14473523	        -13.46409721	         19.16813492	         84.63749462	          0.51067306	          0.05000406	          0.08017127	          0.08133507	          0.05001044	          0.06748576	          0.18958348	          0.09754071	          0.08032396	          0.08207803	          0.05898246	          0.06957834	          0.09682255	          0.09682328	          0.16612750	          0.35170703	          0.05161486	          0.05898395	          0.06960540	          0.05000017	          0.23847248	          0.15063632	          0.05898226	          0.05898227	          0.06127562	          0.06957345	          0.16010697	          0.05898229	          0.21675207	          0.22976974	          0.18932448	          0.05891078	          0.05898228	          0.05384735	          0.05898228	          0.05000060	          0.05340846	          0.67365891	          0.38140004	          0.23807319	          0.35545313	          0.67052425	          0.34118280	          0.05001061	          0.06955362	          0.07476217	          0.05002594	          0.05000100	          0.05897682	          0.05000057	          0.05000010	          0.05000004	          0.05000968	          0.05000048	          0.15709486	          0.19811087	          0.05304369	          0.08667962	          0.17060221	          0.05000066	          0.05001055	          0.05000018	          0.05000182	          0.05000040	          0.05000053	          0.18018022	          0.50262020	          0.08902924	          0.08207752	          0.06957817	          0.05898230	          0.05000059	          0.06019285	          0.08068325	          0.21530200	          0.33370811	          0.28294634	          0.47556930	          0.53136324	          0.52279811	          0.05000002	          0.05000001	          0.05000000	          0.05000002	          0.05000000	          0.05000009	          0.10620427	          0.08052527	          0.15252363	          0.05000000	          0.06415526	          0.05000001	
          0.03233624	         -6.47206235	         -6.60040212	          8.01079459	          0.05145094	          0.89674316	         -0.00598641	         30.02608880	          7.37473557	          0.47569278	        -11.46513498	          9.18333414	         -8.18468076	          0.26761785	        -14.63977151	         -6.30041245	          0.20559074	        -12.55264501	         -0.49131211	          1.69496805	         38.68005875	          2.98256509	          3.86746294	         -0.95996359	        -14.24318900	        -13.52415188	         16.64225789	          0.00097733	          0.85806262	        -13.47100232	         19.28124806	         86.39131253	          0.71527304	          0.44722112	          0.31859287	          0.36920005	          0.32593315	          0.31431267	          0.16071222	          0.10494513	          0.07790591	          0.06957855	          0.05000031	          0.05898240	          0.08207765	          0.08207828	          0.14082834	          0.37122612	          0.05000073	          0.05000150	          0.05900537	          0.26731917	          0.29846117	          0.19808781	          0.05000000	          0.05000000	          0.05194410	          0.05897828	          0.13572473	          0.05000001	          0.18374350	          0.23786299	          0.17236044	          0.05000000	          0.05000001	          0.05000000	          0.05000000	          0.05000003	          0.05000002	          0.73851507	          0.44752242	          0.22522257	          0.62495445	          0.69624991	          0.44719392	          0.26265967	          0.05896147	          0.06337680	          0.22268509	          0.05000247	          0.05000014	          0.05873126	          0.05000005	          0.05000002	          0.05000001	          0.05000041	          0.19828589	          0.24269430	          0.05000012	          0.08778412	          0.16927231	          0.05000072	          0.05000066	          0.05000007	          0.05000097	          0.05000018	          0.05000007	          0.15274113	          0.46743553	          0.07547116	          0.06957811	          0.05898228	          0.05000003	          0.08207576	          0.08207471	          0.06839759	          0.18251411	          0.28288840	          0.26550417	          0.43732571	          0.47423270	          0.47842199	          0.05000001	          0.05000002	          0.05000005	          0.05000003	          0.05000001	          0.05000007	          0.10005523	          0.11815904	          0.17335431	          0.05000000	          0.05438519	          0.05000000	
